<?xml version="1.0" encoding="iso-8859-1"?>
<!-- Generator: Adobe Illustrator 19.0.0, SVG Export Plug-In . SVG Version: 6.00 Build 0)  -->
<svg version="1.1" id="Layer_1" xmlns="http://www.w3.org/2000/svg" xmlns:xlink="http://www.w3.org/1999/xlink" x="0px" y="0px"
	 viewBox="0 0 512.001 512.001" style="enable-background:new 0 0 512.001 512.001;" xml:space="preserve">
<g>
	<g>
		<path d="M241.637,215.751V8.629H46.019v92.074h31.2c-20.77,19.114-38.183,41.873-51.022,66.841C8.814,201.347,0,237.881,0,276.134
			c0,49.234,14.878,96.482,43.026,136.635c27.497,39.225,65.619,69.004,110.245,86.118l5.241,2.009l77.24-77.24l-17.225-2.382
			c-34.802-4.814-66.779-22.023-90.039-48.459c-23.483-26.689-36.415-61.024-36.415-96.681c0-46.101,21.225-88.477,57.489-116.17
			v55.787H241.637z M96.547,194.671c-14.24,24.665-21.766,52.836-21.766,81.463c0,39.865,14.463,78.257,40.725,108.105
			c22.284,25.326,51.73,43.077,84.19,51.021l-45.418,45.418c-39.164-16.15-72.651-42.971-97.091-77.834
			c-26.098-37.231-39.894-81.047-39.894-126.71c0-35.474,8.169-69.348,24.282-100.683c15.342-29.832,37.73-56.275,64.747-76.469
			l20.832-15.571H63.311V25.921h161.031v172.537h-57.489v-70.253l-13.144,8.009C130.079,150.61,110.313,170.824,96.547,194.671z"/>
	</g>
</g>
<g>
	<g>
		<polygon points="123.694,43.143 123.694,60.435 189.829,60.435 189.829,132.323 207.122,132.323 207.122,43.143 		"/>
	</g>
</g>
<g>
	<g>
		<rect x="189.833" y="149.577" width="17.292" height="23.01"/>
	</g>
</g>
<g>
	<g>
		<path d="M485.805,344.457c17.382-33.803,26.196-70.337,26.196-108.59c0-49.233-14.878-96.481-43.026-136.635
			c-27.498-39.225-65.619-69.004-110.246-86.118l-5.241-2.009l-77.24,77.24l17.225,2.382c34.802,4.813,66.78,22.023,90.039,48.459
			c23.483,26.689,36.415,61.024,36.415,96.681c0,46.101-21.225,88.477-57.489,116.17V296.25h-92.074v207.122h195.618v-92.074h-31.2
			C455.553,392.185,472.966,369.425,485.805,344.457z M448.689,428.59v57.489H287.656h-0.001V313.544h57.489v70.252l13.144-8.009
			c23.629-14.396,43.396-34.61,57.163-58.457c14.24-24.666,21.766-52.836,21.766-81.463c0-39.865-14.463-78.257-40.725-108.105
			c-22.283-25.326-51.73-43.077-84.188-51.021l45.417-45.418c39.167,16.15,72.653,42.971,97.092,77.834
			c26.098,37.231,39.894,81.047,39.894,126.71c0,35.475-8.169,69.35-24.282,100.683c-15.34,29.832-37.729,56.275-64.747,76.469
			l-20.834,15.571H448.689z"/>
	</g>
</g>
<g>
	<g>
		<polygon points="322.171,451.566 322.171,379.678 304.878,379.678 304.878,468.858 376.801,468.858 376.801,451.566 		"/>
	</g>
</g>
<g>
	<g>
		<rect x="304.883" y="339.41" width="17.292" height="23.01"/>
	</g>
</g>
<g>
</g>
<g>
</g>
<g>
</g>
<g>
</g>
<g>
</g>
<g>
</g>
<g>
</g>
<g>
</g>
<g>
</g>
<g>
</g>
<g>
</g>
<g>
</g>
<g>
</g>
<g>
</g>
<g>
</g>
</svg>
